<mxfile host="app.diagrams.net" modified="2024-01-25T12:41:32.582Z" agent="Mozilla/5.0 (Windows NT 10.0; Win64; x64) AppleWebKit/537.36 (KHTML, like Gecko) Chrome/120.0.0.0 Safari/537.36" etag="EOnUF51MMqiwNZnlJ_gN" version="23.0.1" type="device">
  <diagram name="Seite-1" id="Pbf81rPbr8IXg5EnhKvV">
    <mxGraphModel dx="2074" dy="1140" grid="1" gridSize="10" guides="1" tooltips="1" connect="1" arrows="1" fold="1" page="1" pageScale="1" pageWidth="827" pageHeight="1169" math="0" shadow="0">
      <root>
        <mxCell id="0" />
        <mxCell id="1" parent="0" />
        <mxCell id="Y2xVMp4MkkQPzRskuGpE-1" value="" style="endArrow=classic;html=1;rounded=0;strokeColor=#000000;" parent="1" edge="1">
          <mxGeometry width="50" height="50" relative="1" as="geometry">
            <mxPoint x="100" y="280" as="sourcePoint" />
            <mxPoint x="440" y="280" as="targetPoint" />
          </mxGeometry>
        </mxCell>
        <mxCell id="Y2xVMp4MkkQPzRskuGpE-2" value="&lt;font&gt;&lt;b&gt;Time&lt;/b&gt;&lt;/font&gt;" style="text;html=1;strokeColor=none;fillColor=none;align=center;verticalAlign=middle;whiteSpace=wrap;rounded=0;fontColor=#000000;" parent="1" vertex="1">
          <mxGeometry x="394" y="290" width="60" height="20" as="geometry" />
        </mxCell>
        <mxCell id="Y2xVMp4MkkQPzRskuGpE-3" value="" style="rounded=0;whiteSpace=wrap;html=1;fontColor=#333333;fillColor=#f5f5f5;strokeColor=#666666;" parent="1" vertex="1">
          <mxGeometry x="100" y="250" width="300" height="20" as="geometry" />
        </mxCell>
        <mxCell id="Y2xVMp4MkkQPzRskuGpE-6" value="" style="rounded=0;whiteSpace=wrap;html=1;strokeWidth=1;fillWeight=1;hachureGap=8;hachureAngle=45;fillColor=#4D4D4D;sketch=1;shadow=0;fontColor=#111D4F;strokeColor=#4D4D4D;sketchStyle=rough;resizeWidth=0;allowArrows=1;imageAspect=1;jiggle=0;fillStyle=cross-hatch;" parent="1" vertex="1">
          <mxGeometry x="100" y="250" width="300" height="20" as="geometry" />
        </mxCell>
        <mxCell id="Y2xVMp4MkkQPzRskuGpE-7" value="" style="rounded=0;whiteSpace=wrap;html=1;shadow=0;sketch=0;fillColor=#fff2cc;strokeColor=#d6b656;" parent="1" vertex="1">
          <mxGeometry x="100" y="210" width="200" height="20" as="geometry" />
        </mxCell>
        <mxCell id="Y2xVMp4MkkQPzRskuGpE-9" value="" style="rounded=0;whiteSpace=wrap;html=1;shadow=0;sketch=0;fillColor=#b0e3e6;strokeColor=#0e8088;" parent="1" vertex="1">
          <mxGeometry x="170" y="168" width="170" height="20" as="geometry" />
        </mxCell>
        <mxCell id="Y2xVMp4MkkQPzRskuGpE-11" value="" style="rounded=0;whiteSpace=wrap;html=1;shadow=0;sketch=0;fillColor=#d0cee2;strokeColor=#56517e;" parent="1" vertex="1">
          <mxGeometry x="250" y="130" width="150" height="20" as="geometry" />
        </mxCell>
        <mxCell id="Y2xVMp4MkkQPzRskuGpE-13" value="" style="rounded=0;whiteSpace=wrap;html=1;strokeWidth=1;fillWeight=1;hachureGap=8;hachureAngle=45;fillColor=#56517E;sketch=1;shadow=0;strokeColor=#56517E;fontColor=#111D4F;fillStyle=cross-hatch;jiggle=0;" parent="1" vertex="1">
          <mxGeometry x="251.25" y="130" width="148.75" height="20" as="geometry" />
        </mxCell>
        <mxCell id="Y2xVMp4MkkQPzRskuGpE-14" value="Control" style="text;html=1;strokeColor=none;fillColor=none;align=center;verticalAlign=middle;whiteSpace=wrap;rounded=0;fontColor=#000000;" parent="1" vertex="1">
          <mxGeometry x="40" y="245" width="60" height="30" as="geometry" />
        </mxCell>
        <mxCell id="Y2xVMp4MkkQPzRskuGpE-15" value="Arm 1" style="text;html=1;strokeColor=none;fillColor=none;align=center;verticalAlign=middle;whiteSpace=wrap;rounded=0;fontColor=#000000;" parent="1" vertex="1">
          <mxGeometry x="50" y="205" width="50" height="30" as="geometry" />
        </mxCell>
        <mxCell id="Y2xVMp4MkkQPzRskuGpE-16" value="Arm 2" style="text;html=1;strokeColor=none;fillColor=none;align=center;verticalAlign=middle;whiteSpace=wrap;rounded=0;fontColor=#000000;" parent="1" vertex="1">
          <mxGeometry x="120" y="163" width="50" height="30" as="geometry" />
        </mxCell>
        <mxCell id="Y2xVMp4MkkQPzRskuGpE-17" value="Arm 3" style="text;html=1;strokeColor=none;fillColor=none;align=center;verticalAlign=middle;whiteSpace=wrap;rounded=0;fontColor=#000000;" parent="1" vertex="1">
          <mxGeometry x="200" y="125" width="50" height="30" as="geometry" />
        </mxCell>
        <mxCell id="Y2xVMp4MkkQPzRskuGpE-22" value="" style="verticalLabelPosition=bottom;shadow=0;dashed=0;align=center;html=1;verticalAlign=top;strokeWidth=1;shape=mxgraph.mockup.markup.curlyBrace;strokeColor=#4D4D4D;rounded=0;fontColor=#4D4D4D;fillColor=#4D4D4D;" parent="1" vertex="1">
          <mxGeometry x="100" y="70" width="70" height="10" as="geometry" />
        </mxCell>
        <mxCell id="Y2xVMp4MkkQPzRskuGpE-23" value="" style="verticalLabelPosition=bottom;shadow=0;dashed=0;align=center;html=1;verticalAlign=top;strokeWidth=1;shape=mxgraph.mockup.markup.curlyBrace;strokeColor=#4D4D4D;rounded=0;fontColor=#4D4D4D;fillColor=#4D4D4D;" parent="1" vertex="1">
          <mxGeometry x="170" y="70" width="80" height="10" as="geometry" />
        </mxCell>
        <mxCell id="Y2xVMp4MkkQPzRskuGpE-24" value="" style="verticalLabelPosition=bottom;shadow=0;dashed=0;align=center;html=1;verticalAlign=top;strokeWidth=1;shape=mxgraph.mockup.markup.curlyBrace;strokeColor=#4D4D4D;rounded=0;fontColor=#4D4D4D;fillColor=#4D4D4D;" parent="1" vertex="1">
          <mxGeometry x="251.25" y="70" width="48.75" height="10" as="geometry" />
        </mxCell>
        <mxCell id="Y2xVMp4MkkQPzRskuGpE-25" value="" style="verticalLabelPosition=bottom;shadow=0;dashed=0;align=center;html=1;verticalAlign=top;strokeWidth=1;shape=mxgraph.mockup.markup.curlyBrace;strokeColor=#4D4D4D;rounded=0;fontColor=#4D4D4D;fillColor=#4D4D4D;" parent="1" vertex="1">
          <mxGeometry x="300" y="70" width="40" height="10" as="geometry" />
        </mxCell>
        <mxCell id="Y2xVMp4MkkQPzRskuGpE-26" value="" style="verticalLabelPosition=bottom;shadow=0;dashed=0;align=center;html=1;verticalAlign=top;strokeWidth=1;shape=mxgraph.mockup.markup.curlyBrace;strokeColor=#4D4D4D;rounded=0;fontColor=#4D4D4D;fillColor=#4D4D4D;" parent="1" vertex="1">
          <mxGeometry x="340" y="70" width="60" height="10" as="geometry" />
        </mxCell>
        <mxCell id="Y2xVMp4MkkQPzRskuGpE-29" value="period&lt;br&gt;1" style="text;html=1;strokeColor=none;fillColor=none;align=center;verticalAlign=middle;whiteSpace=wrap;rounded=0;fontColor=#000000;fontSize=11;" parent="1" vertex="1">
          <mxGeometry x="105" y="40" width="60" height="30" as="geometry" />
        </mxCell>
        <mxCell id="Y2xVMp4MkkQPzRskuGpE-30" value="period&lt;br&gt;2" style="text;html=1;strokeColor=none;fillColor=none;align=center;verticalAlign=middle;whiteSpace=wrap;rounded=0;fontColor=#000000;fontSize=11;" parent="1" vertex="1">
          <mxGeometry x="180" y="40" width="60" height="30" as="geometry" />
        </mxCell>
        <mxCell id="Y2xVMp4MkkQPzRskuGpE-31" value="period&lt;br&gt;3" style="text;html=1;strokeColor=none;fillColor=none;align=center;verticalAlign=middle;whiteSpace=wrap;rounded=0;fontColor=#000000;fontSize=11;" parent="1" vertex="1">
          <mxGeometry x="245.63" y="40" width="60" height="30" as="geometry" />
        </mxCell>
        <mxCell id="Y2xVMp4MkkQPzRskuGpE-32" value="period&lt;br&gt;4" style="text;html=1;strokeColor=none;fillColor=none;align=center;verticalAlign=middle;whiteSpace=wrap;rounded=0;fontColor=#000000;fontSize=11;" parent="1" vertex="1">
          <mxGeometry x="290" y="40" width="60" height="30" as="geometry" />
        </mxCell>
        <mxCell id="Y2xVMp4MkkQPzRskuGpE-33" value="period&lt;br&gt;5" style="text;html=1;strokeColor=none;fillColor=none;align=center;verticalAlign=middle;whiteSpace=wrap;rounded=0;fontColor=#000000;fontSize=11;" parent="1" vertex="1">
          <mxGeometry x="340" y="40" width="60" height="30" as="geometry" />
        </mxCell>
        <mxCell id="Y2xVMp4MkkQPzRskuGpE-36" value="" style="verticalLabelPosition=bottom;shadow=0;dashed=0;align=center;html=1;verticalAlign=top;strokeWidth=1;shape=mxgraph.mockup.markup.curlyBrace;strokeColor=#B3B3B3;rounded=0;sketch=0;fontSize=11;fontColor=#CCCCCC;fillColor=#CCCCCC;rotation=-180;" parent="1" vertex="1">
          <mxGeometry x="100" y="280" width="150" height="20" as="geometry" />
        </mxCell>
        <mxCell id="Y2xVMp4MkkQPzRskuGpE-38" value="&lt;font color=&quot;#990000&quot;&gt;&lt;b&gt;Non-concurrent data for arm 3&lt;/b&gt;&lt;/font&gt;" style="text;html=1;strokeColor=none;fillColor=none;align=center;verticalAlign=middle;whiteSpace=wrap;rounded=0;fontSize=12;fontColor=#111D4F;" parent="1" vertex="1">
          <mxGeometry x="111.25" y="300" width="127.5" height="30" as="geometry" />
        </mxCell>
        <mxCell id="Y2xVMp4MkkQPzRskuGpE-39" value="&lt;font color=&quot;#990000&quot;&gt;&lt;b&gt;Concurrent data for arm 3&lt;/b&gt;&lt;/font&gt;" style="text;html=1;strokeColor=none;fillColor=none;align=center;verticalAlign=middle;whiteSpace=wrap;rounded=0;fontSize=12;fontColor=#111D4F;" parent="1" vertex="1">
          <mxGeometry x="276.88" y="300" width="97.5" height="30" as="geometry" />
        </mxCell>
        <mxCell id="Y2xVMp4MkkQPzRskuGpE-43" value="&lt;font&gt;&lt;b&gt;Data used for the analysis of arm 3&lt;/b&gt;&lt;/font&gt;" style="text;html=1;strokeColor=none;fillColor=none;align=center;verticalAlign=middle;whiteSpace=wrap;rounded=0;fontSize=12;fontColor=#000000;" parent="1" vertex="1">
          <mxGeometry x="180" y="1030" width="180" height="30" as="geometry" />
        </mxCell>
        <mxCell id="Y2xVMp4MkkQPzRskuGpE-48" value="" style="rounded=0;whiteSpace=wrap;html=1;strokeWidth=1;fillWeight=-1;hachureGap=8;hachureAngle=45;fillColor=#000000;sketch=1;shadow=0;strokeColor=#000000;fontColor=#000000;fillStyle=cross-hatch;jiggle=0;" parent="1" vertex="1">
          <mxGeometry x="150" y="1030" width="30" height="30" as="geometry" />
        </mxCell>
        <mxCell id="nWOyR-bEfU8NjaZkbj3d-1" value="" style="rounded=0;whiteSpace=wrap;html=1;strokeWidth=1;fillWeight=1;hachureGap=8;hachureAngle=45;fillColor=#0E8088;sketch=1;shadow=0;strokeColor=#0E8088;fontColor=#111D4F;fillStyle=cross-hatch;jiggle=0;" parent="1" vertex="1">
          <mxGeometry x="170" y="168" width="170" height="20" as="geometry" />
        </mxCell>
        <mxCell id="nWOyR-bEfU8NjaZkbj3d-3" value="" style="rounded=0;whiteSpace=wrap;html=1;strokeWidth=1;fillWeight=1;hachureGap=8;hachureAngle=45;fillColor=#D6B656;sketch=1;shadow=0;strokeColor=#D6B656;fontColor=#111D4F;fillStyle=cross-hatch;jiggle=0;" parent="1" vertex="1">
          <mxGeometry x="100" y="210" width="200" height="20" as="geometry" />
        </mxCell>
        <mxCell id="UpBqw47bed0QZ7fs-QAz-2" value="" style="endArrow=classic;html=1;rounded=0;strokeColor=#000000;" parent="1" edge="1">
          <mxGeometry width="50" height="50" relative="1" as="geometry">
            <mxPoint x="100" y="610" as="sourcePoint" />
            <mxPoint x="440" y="610" as="targetPoint" />
          </mxGeometry>
        </mxCell>
        <mxCell id="UpBqw47bed0QZ7fs-QAz-3" value="&lt;font&gt;&lt;b&gt;Time&lt;/b&gt;&lt;/font&gt;" style="text;html=1;strokeColor=none;fillColor=none;align=center;verticalAlign=middle;whiteSpace=wrap;rounded=0;fontColor=#000000;" parent="1" vertex="1">
          <mxGeometry x="401" y="620" width="60" height="20" as="geometry" />
        </mxCell>
        <mxCell id="UpBqw47bed0QZ7fs-QAz-4" value="" style="rounded=0;whiteSpace=wrap;html=1;fontColor=#333333;fillColor=#f5f5f5;strokeColor=#666666;" parent="1" vertex="1">
          <mxGeometry x="100" y="580" width="300" height="20" as="geometry" />
        </mxCell>
        <mxCell id="UpBqw47bed0QZ7fs-QAz-5" value="" style="rounded=0;whiteSpace=wrap;html=1;strokeWidth=1;fillWeight=1;hachureGap=8;hachureAngle=45;fillColor=#4D4D4D;sketch=1;shadow=0;fontColor=#111D4F;strokeColor=#4D4D4D;sketchStyle=rough;resizeWidth=0;allowArrows=1;imageAspect=1;jiggle=0;fillStyle=cross-hatch;" parent="1" vertex="1">
          <mxGeometry x="100" y="580" width="300" height="20" as="geometry" />
        </mxCell>
        <mxCell id="UpBqw47bed0QZ7fs-QAz-6" value="" style="rounded=0;whiteSpace=wrap;html=1;shadow=0;sketch=0;fillColor=#fff2cc;strokeColor=#d6b656;" parent="1" vertex="1">
          <mxGeometry x="100" y="540" width="200" height="20" as="geometry" />
        </mxCell>
        <mxCell id="UpBqw47bed0QZ7fs-QAz-7" value="" style="rounded=0;whiteSpace=wrap;html=1;shadow=0;sketch=0;fillColor=#b0e3e6;strokeColor=#0e8088;" parent="1" vertex="1">
          <mxGeometry x="170" y="498" width="170" height="20" as="geometry" />
        </mxCell>
        <mxCell id="UpBqw47bed0QZ7fs-QAz-8" value="" style="rounded=0;whiteSpace=wrap;html=1;shadow=0;sketch=0;fillColor=#d0cee2;strokeColor=#56517e;" parent="1" vertex="1">
          <mxGeometry x="250" y="460" width="150" height="20" as="geometry" />
        </mxCell>
        <mxCell id="UpBqw47bed0QZ7fs-QAz-9" value="" style="rounded=0;whiteSpace=wrap;html=1;strokeWidth=1;fillWeight=1;hachureGap=8;hachureAngle=45;fillColor=#56517E;sketch=1;shadow=0;strokeColor=#56517E;fontColor=#111D4F;fillStyle=cross-hatch;jiggle=0;" parent="1" vertex="1">
          <mxGeometry x="251.25" y="460" width="148.75" height="20" as="geometry" />
        </mxCell>
        <mxCell id="UpBqw47bed0QZ7fs-QAz-10" value="Control" style="text;html=1;strokeColor=none;fillColor=none;align=center;verticalAlign=middle;whiteSpace=wrap;rounded=0;fontColor=#000000;" parent="1" vertex="1">
          <mxGeometry x="40" y="575" width="60" height="30" as="geometry" />
        </mxCell>
        <mxCell id="UpBqw47bed0QZ7fs-QAz-11" value="Arm 1" style="text;html=1;strokeColor=none;fillColor=none;align=center;verticalAlign=middle;whiteSpace=wrap;rounded=0;fontColor=#000000;" parent="1" vertex="1">
          <mxGeometry x="50" y="535" width="50" height="30" as="geometry" />
        </mxCell>
        <mxCell id="UpBqw47bed0QZ7fs-QAz-12" value="Arm 2" style="text;html=1;strokeColor=none;fillColor=none;align=center;verticalAlign=middle;whiteSpace=wrap;rounded=0;fontColor=#000000;" parent="1" vertex="1">
          <mxGeometry x="117" y="493" width="50" height="30" as="geometry" />
        </mxCell>
        <mxCell id="UpBqw47bed0QZ7fs-QAz-13" value="Arm 3" style="text;html=1;strokeColor=none;fillColor=none;align=center;verticalAlign=middle;whiteSpace=wrap;rounded=0;fontColor=#000000;" parent="1" vertex="1">
          <mxGeometry x="200" y="455" width="50" height="30" as="geometry" />
        </mxCell>
        <mxCell id="UpBqw47bed0QZ7fs-QAz-18" value="" style="verticalLabelPosition=bottom;shadow=0;dashed=0;align=center;html=1;verticalAlign=top;strokeWidth=1;shape=mxgraph.mockup.markup.curlyBrace;strokeColor=#4D4D4D;rounded=0;fontColor=#4D4D4D;fillColor=#4D4D4D;" parent="1" vertex="1">
          <mxGeometry x="100" y="400" width="50" height="10" as="geometry" />
        </mxCell>
        <mxCell id="UpBqw47bed0QZ7fs-QAz-19" value="" style="verticalLabelPosition=bottom;shadow=0;dashed=0;align=center;html=1;verticalAlign=top;strokeWidth=1;shape=mxgraph.mockup.markup.curlyBrace;strokeColor=#4D4D4D;rounded=0;fontColor=#4D4D4D;fillColor=#4D4D4D;" parent="1" vertex="1">
          <mxGeometry x="150" y="400" width="50" height="10" as="geometry" />
        </mxCell>
        <mxCell id="UpBqw47bed0QZ7fs-QAz-20" value="" style="verticalLabelPosition=bottom;shadow=0;dashed=0;align=center;html=1;verticalAlign=top;strokeWidth=1;shape=mxgraph.mockup.markup.curlyBrace;strokeColor=#4D4D4D;rounded=0;fontColor=#4D4D4D;fillColor=#4D4D4D;" parent="1" vertex="1">
          <mxGeometry x="200.63" y="400" width="49.37" height="10" as="geometry" />
        </mxCell>
        <mxCell id="UpBqw47bed0QZ7fs-QAz-21" value="" style="verticalLabelPosition=bottom;shadow=0;dashed=0;align=center;html=1;verticalAlign=top;strokeWidth=1;shape=mxgraph.mockup.markup.curlyBrace;strokeColor=#4D4D4D;rounded=0;fontColor=#4D4D4D;fillColor=#4D4D4D;" parent="1" vertex="1">
          <mxGeometry x="250" y="400" width="50" height="10" as="geometry" />
        </mxCell>
        <mxCell id="UpBqw47bed0QZ7fs-QAz-22" value="" style="verticalLabelPosition=bottom;shadow=0;dashed=0;align=center;html=1;verticalAlign=top;strokeWidth=1;shape=mxgraph.mockup.markup.curlyBrace;strokeColor=#4D4D4D;rounded=0;fontColor=#4D4D4D;fillColor=#4D4D4D;" parent="1" vertex="1">
          <mxGeometry x="300" y="400" width="50" height="10" as="geometry" />
        </mxCell>
        <mxCell id="UpBqw47bed0QZ7fs-QAz-25" value="time bucket 1" style="text;html=1;strokeColor=none;fillColor=none;align=center;verticalAlign=middle;whiteSpace=wrap;rounded=0;fontColor=#000000;fontSize=11;" parent="1" vertex="1">
          <mxGeometry x="347.5" y="370" width="55" height="30" as="geometry" />
        </mxCell>
        <mxCell id="UpBqw47bed0QZ7fs-QAz-30" value="" style="verticalLabelPosition=bottom;shadow=0;dashed=0;align=center;html=1;verticalAlign=top;strokeWidth=1;shape=mxgraph.mockup.markup.curlyBrace;strokeColor=#B3B3B3;rounded=0;sketch=0;fontSize=11;fontColor=#CCCCCC;fillColor=#CCCCCC;rotation=-180;" parent="1" vertex="1">
          <mxGeometry x="100" y="610" width="150" height="20" as="geometry" />
        </mxCell>
        <mxCell id="UpBqw47bed0QZ7fs-QAz-32" value="&lt;font color=&quot;#990000&quot;&gt;&lt;b&gt;Non-concurrent data for arm 3&lt;/b&gt;&lt;/font&gt;" style="text;html=1;strokeColor=none;fillColor=none;align=center;verticalAlign=middle;whiteSpace=wrap;rounded=0;fontSize=12;fontColor=#111D4F;" parent="1" vertex="1">
          <mxGeometry x="111.25" y="630" width="127.5" height="30" as="geometry" />
        </mxCell>
        <mxCell id="UpBqw47bed0QZ7fs-QAz-33" value="&lt;font color=&quot;#990000&quot;&gt;&lt;b&gt;Concurrent data for arm 3&lt;/b&gt;&lt;/font&gt;" style="text;html=1;strokeColor=none;fillColor=none;align=center;verticalAlign=middle;whiteSpace=wrap;rounded=0;fontSize=12;fontColor=#111D4F;" parent="1" vertex="1">
          <mxGeometry x="276.88" y="630" width="97.5" height="30" as="geometry" />
        </mxCell>
        <mxCell id="UpBqw47bed0QZ7fs-QAz-34" value="" style="rounded=0;whiteSpace=wrap;html=1;strokeWidth=1;fillWeight=1;hachureGap=8;hachureAngle=45;fillColor=#0E8088;sketch=1;shadow=0;strokeColor=#0E8088;fontColor=#111D4F;fillStyle=cross-hatch;jiggle=0;" parent="1" vertex="1">
          <mxGeometry x="170" y="498" width="170" height="20" as="geometry" />
        </mxCell>
        <mxCell id="UpBqw47bed0QZ7fs-QAz-35" value="" style="rounded=0;whiteSpace=wrap;html=1;strokeWidth=1;fillWeight=1;hachureGap=8;hachureAngle=45;fillColor=#D6B656;sketch=1;shadow=0;strokeColor=#D6B656;fontColor=#111D4F;fillStyle=cross-hatch;jiggle=0;" parent="1" vertex="1">
          <mxGeometry x="100" y="540" width="200" height="20" as="geometry" />
        </mxCell>
        <mxCell id="UpBqw47bed0QZ7fs-QAz-37" value="" style="verticalLabelPosition=bottom;shadow=0;dashed=0;align=center;html=1;verticalAlign=top;strokeWidth=1;shape=mxgraph.mockup.markup.curlyBrace;strokeColor=#4D4D4D;rounded=0;fontColor=#4D4D4D;fillColor=#4D4D4D;" parent="1" vertex="1">
          <mxGeometry x="350" y="400" width="50" height="10" as="geometry" />
        </mxCell>
        <mxCell id="UpBqw47bed0QZ7fs-QAz-38" value="time bucket 2" style="text;html=1;strokeColor=none;fillColor=none;align=center;verticalAlign=middle;whiteSpace=wrap;rounded=0;fontColor=#000000;fontSize=11;" parent="1" vertex="1">
          <mxGeometry x="297.5" y="370" width="55" height="30" as="geometry" />
        </mxCell>
        <mxCell id="UpBqw47bed0QZ7fs-QAz-39" value="time bucket 3" style="text;html=1;strokeColor=none;fillColor=none;align=center;verticalAlign=middle;whiteSpace=wrap;rounded=0;fontColor=#000000;fontSize=11;" parent="1" vertex="1">
          <mxGeometry x="247.5" y="370" width="55" height="30" as="geometry" />
        </mxCell>
        <mxCell id="UpBqw47bed0QZ7fs-QAz-40" value="time bucket 4" style="text;html=1;strokeColor=none;fillColor=none;align=center;verticalAlign=middle;whiteSpace=wrap;rounded=0;fontColor=#000000;fontSize=11;" parent="1" vertex="1">
          <mxGeometry x="197.82000000000005" y="370" width="55" height="30" as="geometry" />
        </mxCell>
        <mxCell id="UpBqw47bed0QZ7fs-QAz-41" value="time bucket 5" style="text;html=1;strokeColor=none;fillColor=none;align=center;verticalAlign=middle;whiteSpace=wrap;rounded=0;fontColor=#000000;fontSize=11;" parent="1" vertex="1">
          <mxGeometry x="147.5" y="370" width="55" height="30" as="geometry" />
        </mxCell>
        <mxCell id="UpBqw47bed0QZ7fs-QAz-42" value="time bucket 6" style="text;html=1;strokeColor=none;fillColor=none;align=center;verticalAlign=middle;whiteSpace=wrap;rounded=0;fontColor=#000000;fontSize=11;" parent="1" vertex="1">
          <mxGeometry x="97.5" y="370" width="55" height="30" as="geometry" />
        </mxCell>
        <mxCell id="UpBqw47bed0QZ7fs-QAz-43" value="" style="endArrow=classic;html=1;rounded=0;strokeColor=#000000;" parent="1" edge="1">
          <mxGeometry width="50" height="50" relative="1" as="geometry">
            <mxPoint x="100" y="940" as="sourcePoint" />
            <mxPoint x="440" y="940" as="targetPoint" />
          </mxGeometry>
        </mxCell>
        <mxCell id="UpBqw47bed0QZ7fs-QAz-44" value="&lt;font&gt;&lt;b&gt;Time&lt;/b&gt;&lt;/font&gt;" style="text;html=1;strokeColor=none;fillColor=none;align=center;verticalAlign=middle;whiteSpace=wrap;rounded=0;fontColor=#000000;" parent="1" vertex="1">
          <mxGeometry x="394" y="950" width="60" height="20" as="geometry" />
        </mxCell>
        <mxCell id="UpBqw47bed0QZ7fs-QAz-45" value="" style="rounded=0;whiteSpace=wrap;html=1;fontColor=#333333;fillColor=#f5f5f5;strokeColor=#666666;" parent="1" vertex="1">
          <mxGeometry x="100" y="910" width="300" height="20" as="geometry" />
        </mxCell>
        <mxCell id="UpBqw47bed0QZ7fs-QAz-46" value="" style="rounded=0;whiteSpace=wrap;html=1;strokeWidth=1;fillWeight=1;hachureGap=8;hachureAngle=45;fillColor=#4D4D4D;sketch=1;shadow=0;fontColor=#111D4F;strokeColor=#4D4D4D;sketchStyle=rough;resizeWidth=0;allowArrows=1;imageAspect=1;jiggle=0;fillStyle=cross-hatch;" parent="1" vertex="1">
          <mxGeometry x="100" y="910" width="300" height="20" as="geometry" />
        </mxCell>
        <mxCell id="UpBqw47bed0QZ7fs-QAz-47" value="" style="rounded=0;whiteSpace=wrap;html=1;shadow=0;sketch=0;fillColor=#fff2cc;strokeColor=#d6b656;" parent="1" vertex="1">
          <mxGeometry x="100" y="870" width="200" height="20" as="geometry" />
        </mxCell>
        <mxCell id="UpBqw47bed0QZ7fs-QAz-48" value="" style="rounded=0;whiteSpace=wrap;html=1;shadow=0;sketch=0;fillColor=#b0e3e6;strokeColor=#0e8088;" parent="1" vertex="1">
          <mxGeometry x="170" y="828" width="170" height="20" as="geometry" />
        </mxCell>
        <mxCell id="UpBqw47bed0QZ7fs-QAz-49" value="" style="rounded=0;whiteSpace=wrap;html=1;shadow=0;sketch=0;fillColor=#d0cee2;strokeColor=#56517e;" parent="1" vertex="1">
          <mxGeometry x="250" y="790" width="150" height="20" as="geometry" />
        </mxCell>
        <mxCell id="UpBqw47bed0QZ7fs-QAz-50" value="" style="rounded=0;whiteSpace=wrap;html=1;strokeWidth=1;fillWeight=1;hachureGap=8;hachureAngle=45;fillColor=#56517E;sketch=1;shadow=0;strokeColor=#56517E;fontColor=#111D4F;fillStyle=cross-hatch;jiggle=0;" parent="1" vertex="1">
          <mxGeometry x="251.25" y="790" width="148.75" height="20" as="geometry" />
        </mxCell>
        <mxCell id="UpBqw47bed0QZ7fs-QAz-51" value="Control" style="text;html=1;strokeColor=none;fillColor=none;align=center;verticalAlign=middle;whiteSpace=wrap;rounded=0;fontColor=#000000;" parent="1" vertex="1">
          <mxGeometry x="40" y="905" width="60" height="30" as="geometry" />
        </mxCell>
        <mxCell id="UpBqw47bed0QZ7fs-QAz-52" value="Arm 1" style="text;html=1;strokeColor=none;fillColor=none;align=center;verticalAlign=middle;whiteSpace=wrap;rounded=0;fontColor=#000000;" parent="1" vertex="1">
          <mxGeometry x="50" y="865" width="50" height="30" as="geometry" />
        </mxCell>
        <mxCell id="UpBqw47bed0QZ7fs-QAz-53" value="Arm 2" style="text;html=1;strokeColor=none;fillColor=none;align=center;verticalAlign=middle;whiteSpace=wrap;rounded=0;fontColor=#000000;" parent="1" vertex="1">
          <mxGeometry x="120" y="823" width="50" height="30" as="geometry" />
        </mxCell>
        <mxCell id="UpBqw47bed0QZ7fs-QAz-54" value="Arm 3" style="text;html=1;strokeColor=none;fillColor=none;align=center;verticalAlign=middle;whiteSpace=wrap;rounded=0;fontColor=#000000;" parent="1" vertex="1">
          <mxGeometry x="200" y="785" width="50" height="30" as="geometry" />
        </mxCell>
        <mxCell id="UpBqw47bed0QZ7fs-QAz-55" value="" style="endArrow=none;dashed=1;html=1;rounded=0;strokeColor=#4D4D4D;fontColor=#111D4F;" parent="1" edge="1">
          <mxGeometry width="50" height="50" relative="1" as="geometry">
            <mxPoint x="170" y="940" as="sourcePoint" />
            <mxPoint x="170" y="740" as="targetPoint" />
          </mxGeometry>
        </mxCell>
        <mxCell id="UpBqw47bed0QZ7fs-QAz-56" value="" style="endArrow=none;dashed=1;html=1;rounded=0;strokeColor=#4D4D4D;fontColor=#111D4F;" parent="1" edge="1">
          <mxGeometry width="50" height="50" relative="1" as="geometry">
            <mxPoint x="250.25" y="940" as="sourcePoint" />
            <mxPoint x="250.25" y="740" as="targetPoint" />
          </mxGeometry>
        </mxCell>
        <mxCell id="UpBqw47bed0QZ7fs-QAz-59" value="" style="verticalLabelPosition=bottom;shadow=0;dashed=0;align=center;html=1;verticalAlign=top;strokeWidth=1;shape=mxgraph.mockup.markup.curlyBrace;strokeColor=#4D4D4D;rounded=0;fontColor=#4D4D4D;fillColor=#4D4D4D;" parent="1" vertex="1">
          <mxGeometry x="100" y="730" width="70" height="10" as="geometry" />
        </mxCell>
        <mxCell id="UpBqw47bed0QZ7fs-QAz-60" value="" style="verticalLabelPosition=bottom;shadow=0;dashed=0;align=center;html=1;verticalAlign=top;strokeWidth=1;shape=mxgraph.mockup.markup.curlyBrace;strokeColor=#4D4D4D;rounded=0;fontColor=#4D4D4D;fillColor=#4D4D4D;" parent="1" vertex="1">
          <mxGeometry x="170" y="730" width="80" height="10" as="geometry" />
        </mxCell>
        <mxCell id="UpBqw47bed0QZ7fs-QAz-65" value="" style="endArrow=none;dashed=1;html=1;rounded=0;strokeColor=#4D4D4D;fontColor=#111D4F;" parent="1" edge="1">
          <mxGeometry width="50" height="50" relative="1" as="geometry">
            <mxPoint x="100" y="940" as="sourcePoint" />
            <mxPoint x="100" y="740" as="targetPoint" />
          </mxGeometry>
        </mxCell>
        <mxCell id="UpBqw47bed0QZ7fs-QAz-66" value="period&lt;br&gt;1" style="text;html=1;strokeColor=none;fillColor=none;align=center;verticalAlign=middle;whiteSpace=wrap;rounded=0;fontColor=#000000;fontSize=11;" parent="1" vertex="1">
          <mxGeometry x="105" y="700" width="60" height="30" as="geometry" />
        </mxCell>
        <mxCell id="UpBqw47bed0QZ7fs-QAz-67" value="period&lt;br&gt;2" style="text;html=1;strokeColor=none;fillColor=none;align=center;verticalAlign=middle;whiteSpace=wrap;rounded=0;fontColor=#000000;fontSize=11;" parent="1" vertex="1">
          <mxGeometry x="180" y="700" width="60" height="30" as="geometry" />
        </mxCell>
        <mxCell id="UpBqw47bed0QZ7fs-QAz-71" value="" style="verticalLabelPosition=bottom;shadow=0;dashed=0;align=center;html=1;verticalAlign=top;strokeWidth=1;shape=mxgraph.mockup.markup.curlyBrace;strokeColor=#B3B3B3;rounded=0;sketch=0;fontSize=11;fontColor=#CCCCCC;fillColor=#CCCCCC;rotation=-180;" parent="1" vertex="1">
          <mxGeometry x="100" y="940" width="150" height="20" as="geometry" />
        </mxCell>
        <mxCell id="UpBqw47bed0QZ7fs-QAz-73" value="&lt;font color=&quot;#990000&quot;&gt;&lt;b&gt;Non-concurrent data for arm 3&lt;/b&gt;&lt;/font&gt;" style="text;html=1;strokeColor=none;fillColor=none;align=center;verticalAlign=middle;whiteSpace=wrap;rounded=0;fontSize=12;fontColor=#111D4F;" parent="1" vertex="1">
          <mxGeometry x="111.25" y="960" width="127.5" height="30" as="geometry" />
        </mxCell>
        <mxCell id="UpBqw47bed0QZ7fs-QAz-74" value="&lt;font color=&quot;#990000&quot;&gt;&lt;b&gt;Concurrent data for arm 3&lt;/b&gt;&lt;/font&gt;" style="text;html=1;strokeColor=none;fillColor=none;align=center;verticalAlign=middle;whiteSpace=wrap;rounded=0;fontSize=12;fontColor=#111D4F;" parent="1" vertex="1">
          <mxGeometry x="276.8800000000001" y="960" width="97.5" height="30" as="geometry" />
        </mxCell>
        <mxCell id="UpBqw47bed0QZ7fs-QAz-77" value="" style="verticalLabelPosition=bottom;shadow=0;dashed=0;align=center;html=1;verticalAlign=top;strokeWidth=1;shape=mxgraph.mockup.markup.curlyBrace;strokeColor=#B3B3B3;rounded=0;sketch=0;fontSize=11;fontColor=#CCCCCC;fillColor=#CCCCCC;rotation=-180;" parent="1" vertex="1">
          <mxGeometry x="250" y="281" width="150" height="20" as="geometry" />
        </mxCell>
        <mxCell id="UpBqw47bed0QZ7fs-QAz-78" value="" style="verticalLabelPosition=bottom;shadow=0;dashed=0;align=center;html=1;verticalAlign=top;strokeWidth=1;shape=mxgraph.mockup.markup.curlyBrace;strokeColor=#B3B3B3;rounded=0;sketch=0;fontSize=11;fontColor=#CCCCCC;fillColor=#CCCCCC;rotation=-180;" parent="1" vertex="1">
          <mxGeometry x="250" y="610" width="150" height="20" as="geometry" />
        </mxCell>
        <mxCell id="UpBqw47bed0QZ7fs-QAz-79" value="" style="verticalLabelPosition=bottom;shadow=0;dashed=0;align=center;html=1;verticalAlign=top;strokeWidth=1;shape=mxgraph.mockup.markup.curlyBrace;strokeColor=#B3B3B3;rounded=0;sketch=0;fontSize=11;fontColor=#CCCCCC;fillColor=#CCCCCC;rotation=-180;" parent="1" vertex="1">
          <mxGeometry x="251" y="940" width="150" height="20" as="geometry" />
        </mxCell>
        <mxCell id="Y2xVMp4MkkQPzRskuGpE-18" value="" style="endArrow=none;dashed=1;html=1;rounded=0;strokeColor=#4D4D4D;fontColor=#111D4F;" parent="1" edge="1">
          <mxGeometry width="50" height="50" relative="1" as="geometry">
            <mxPoint x="170" y="278" as="sourcePoint" />
            <mxPoint x="170" y="78" as="targetPoint" />
          </mxGeometry>
        </mxCell>
        <mxCell id="Y2xVMp4MkkQPzRskuGpE-28" value="" style="endArrow=none;dashed=1;html=1;rounded=0;strokeColor=#4D4D4D;fontColor=#111D4F;" parent="1" edge="1">
          <mxGeometry width="50" height="50" relative="1" as="geometry">
            <mxPoint x="100" y="280" as="sourcePoint" />
            <mxPoint x="100" y="80" as="targetPoint" />
          </mxGeometry>
        </mxCell>
        <mxCell id="Y2xVMp4MkkQPzRskuGpE-19" value="" style="endArrow=none;dashed=1;html=1;rounded=0;strokeColor=#4D4D4D;fontColor=#111D4F;" parent="1" edge="1">
          <mxGeometry width="50" height="50" relative="1" as="geometry">
            <mxPoint x="250.25" y="280" as="sourcePoint" />
            <mxPoint x="250.25" y="80" as="targetPoint" />
          </mxGeometry>
        </mxCell>
        <mxCell id="Y2xVMp4MkkQPzRskuGpE-20" value="" style="endArrow=none;dashed=1;html=1;rounded=0;strokeColor=#4D4D4D;fontColor=#111D4F;" parent="1" edge="1">
          <mxGeometry width="50" height="50" relative="1" as="geometry">
            <mxPoint x="299.99999999999994" y="280" as="sourcePoint" />
            <mxPoint x="299.99999999999994" y="80" as="targetPoint" />
          </mxGeometry>
        </mxCell>
        <mxCell id="Y2xVMp4MkkQPzRskuGpE-21" value="" style="endArrow=none;dashed=1;html=1;rounded=0;strokeColor=#4D4D4D;fontColor=#111D4F;" parent="1" edge="1">
          <mxGeometry width="50" height="50" relative="1" as="geometry">
            <mxPoint x="340" y="280" as="sourcePoint" />
            <mxPoint x="340" y="80" as="targetPoint" />
          </mxGeometry>
        </mxCell>
        <mxCell id="Y2xVMp4MkkQPzRskuGpE-27" value="" style="endArrow=none;dashed=1;html=1;rounded=0;strokeColor=#4D4D4D;fontColor=#111D4F;" parent="1" edge="1">
          <mxGeometry width="50" height="50" relative="1" as="geometry">
            <mxPoint x="400" y="280" as="sourcePoint" />
            <mxPoint x="400" y="80" as="targetPoint" />
          </mxGeometry>
        </mxCell>
        <mxCell id="UpBqw47bed0QZ7fs-QAz-24" value="" style="endArrow=none;dashed=1;html=1;rounded=0;strokeColor=#4D4D4D;fontColor=#111D4F;" parent="1" edge="1">
          <mxGeometry width="50" height="50" relative="1" as="geometry">
            <mxPoint x="100" y="610" as="sourcePoint" />
            <mxPoint x="100" y="410" as="targetPoint" />
          </mxGeometry>
        </mxCell>
        <mxCell id="UpBqw47bed0QZ7fs-QAz-14" value="" style="endArrow=none;dashed=1;html=1;rounded=0;strokeColor=#4D4D4D;fontColor=#111D4F;" parent="1" edge="1">
          <mxGeometry width="50" height="50" relative="1" as="geometry">
            <mxPoint x="150" y="610" as="sourcePoint" />
            <mxPoint x="150" y="410" as="targetPoint" />
          </mxGeometry>
        </mxCell>
        <mxCell id="UpBqw47bed0QZ7fs-QAz-15" value="" style="endArrow=none;dashed=1;html=1;rounded=0;strokeColor=#4D4D4D;fontColor=#111D4F;" parent="1" edge="1">
          <mxGeometry width="50" height="50" relative="1" as="geometry">
            <mxPoint x="200" y="610" as="sourcePoint" />
            <mxPoint x="200" y="410" as="targetPoint" />
          </mxGeometry>
        </mxCell>
        <mxCell id="UpBqw47bed0QZ7fs-QAz-16" value="" style="endArrow=none;dashed=1;html=1;rounded=0;strokeColor=#4D4D4D;fontColor=#111D4F;" parent="1" edge="1">
          <mxGeometry width="50" height="50" relative="1" as="geometry">
            <mxPoint x="250.09000000000003" y="610" as="sourcePoint" />
            <mxPoint x="250.09000000000003" y="410" as="targetPoint" />
          </mxGeometry>
        </mxCell>
        <mxCell id="UpBqw47bed0QZ7fs-QAz-17" value="" style="endArrow=none;dashed=1;html=1;rounded=0;strokeColor=#4D4D4D;fontColor=#111D4F;" parent="1" edge="1">
          <mxGeometry width="50" height="50" relative="1" as="geometry">
            <mxPoint x="300" y="610" as="sourcePoint" />
            <mxPoint x="300" y="410" as="targetPoint" />
          </mxGeometry>
        </mxCell>
        <mxCell id="UpBqw47bed0QZ7fs-QAz-36" value="" style="endArrow=none;dashed=1;html=1;rounded=0;strokeColor=#4D4D4D;fontColor=#111D4F;" parent="1" edge="1">
          <mxGeometry width="50" height="50" relative="1" as="geometry">
            <mxPoint x="350" y="610" as="sourcePoint" />
            <mxPoint x="350" y="410" as="targetPoint" />
          </mxGeometry>
        </mxCell>
        <mxCell id="UpBqw47bed0QZ7fs-QAz-23" value="" style="endArrow=none;dashed=1;html=1;rounded=0;strokeColor=#4D4D4D;fontColor=#111D4F;" parent="1" edge="1">
          <mxGeometry width="50" height="50" relative="1" as="geometry">
            <mxPoint x="400" y="610" as="sourcePoint" />
            <mxPoint x="400" y="410" as="targetPoint" />
          </mxGeometry>
        </mxCell>
        <mxCell id="UpBqw47bed0QZ7fs-QAz-82" value="&lt;font size=&quot;1&quot;&gt;&lt;b style=&quot;font-size: 20px;&quot;&gt;A)&lt;/b&gt;&lt;/font&gt;" style="text;html=1;strokeColor=none;fillColor=none;align=center;verticalAlign=middle;whiteSpace=wrap;rounded=0;fontSize=12;fontColor=#000000;" parent="1" vertex="1">
          <mxGeometry x="100" width="35.5" height="30" as="geometry" />
        </mxCell>
        <mxCell id="UpBqw47bed0QZ7fs-QAz-83" value="&lt;font size=&quot;1&quot;&gt;&lt;b style=&quot;font-size: 20px;&quot;&gt;B)&lt;/b&gt;&lt;/font&gt;" style="text;html=1;strokeColor=none;fillColor=none;align=center;verticalAlign=middle;whiteSpace=wrap;rounded=0;fontSize=12;fontColor=#000000;" parent="1" vertex="1">
          <mxGeometry x="100" y="330" width="35.5" height="30" as="geometry" />
        </mxCell>
        <mxCell id="UpBqw47bed0QZ7fs-QAz-84" value="&lt;font size=&quot;1&quot;&gt;&lt;b style=&quot;font-size: 20px;&quot;&gt;C)&lt;/b&gt;&lt;/font&gt;" style="text;html=1;strokeColor=none;fillColor=none;align=center;verticalAlign=middle;whiteSpace=wrap;rounded=0;fontSize=12;fontColor=#000000;" parent="1" vertex="1">
          <mxGeometry x="100" y="660" width="35.5" height="30" as="geometry" />
        </mxCell>
      </root>
    </mxGraphModel>
  </diagram>
</mxfile>
